<?xml version="1.0" encoding="utf-8"?>
<!-- Generator: Adobe Illustrator 16.0.0, SVG Export Plug-In . SVG Version: 6.00 Build 0)  -->
<!DOCTYPE svg PUBLIC "-//W3C//DTD SVG 1.1//EN" "http://www.w3.org/Graphics/SVG/1.1/DTD/svg11.dtd">
<svg version="1.1" id="_x3F__x3F__1" xmlns="http://www.w3.org/2000/svg" xmlns:xlink="http://www.w3.org/1999/xlink" x="0px"
		 y="0px" width="280px" height="178px" viewBox="0 217 280 178" enable-background="new 0 217 280 178" xml:space="preserve">
<style type="text/css">
	.mountain {
		fill: #ccc;
		stroke-dasharray: 1000;
		stroke-dashoffset: 1000;
		animation: dash 3s linear forwards;
	}

	@keyframes dash {
		0% {
			stroke-dashoffset: 900;
		}

		30% {
			stroke-dashoffset: 800;
		}

		60% {
			stroke-dashoffset: 100;
			fill: #ccc;
		}

		to {
			stroke-dashoffset: 0;
			fill: #008D43;
		}
	}
</style>
<g>
<path d="M94.989,358.214c0.271-0.513,0.865-0.456,1.135-0.969c0.162-0.741-0.322-1.197-0.378-1.781
   c-0.757-1.539-2.281-1.938-3.74-1.995c-1.853,0.513-4.176,2.337-5.852,0.798v-6.326c-0.865-1.767-1.203-3.719-2.605-5.201
   c-3.026-1.254-5.095-5.03-8.119-6.341c-2.393,1.482-3.742,4.061-3.958,6.74c-0.271,1.368,0.378,2.636,1.513,2.978
   c0.324,1.482,0.324,3.477-0.757,4.389c-0.378,1.425-0.054,3.021,0.379,4.332c-1.135,1.439-2.877,1.268-4.336,1.781
   c-1.243-1.724-0.973-4.175-2.054-5.942c-1.148-1.596-2.499-3.191-2.985-5.129c-0.324,0.057-0.757-0.171-0.973,0.171
   c-1.081-0.641-1.405,1.026-2.056,1.596c-1.311,1.824-2.229,3.833-3.362,5.757c-0.378,0.57-0.648-0.228-0.975-0.399
   c-0.878,1.14-1.256,2.907-1.851,4.346c-0.703,2.166-1.081,4.118-0.378,6.341c2.605,1.026,3.093,4.004,4.12,6.17
   c1.999,0.912,3.796,2.75,6.228,2.009c1.797-2.009,2.229-4.688,4.661-6.184c3.364-0.57,5.85-3.191,9.213-3.534
   c4.229,0.399,9.213-0.399,13.768,0.342c1.565-0.57,3.578-0.342,5.037-1.14C96.773,359.582,94.382,359.981,94.989,358.214
   L94.989,358.214z" />

<path d="M109.282,348.91c-1.565-3.833-4.983-7.481-9.051-7.937c-0.365,0.57,0.054,1.425-0.756,1.767
   c-2.216,0.513,0.338,2.394,0,3.776c0.108,1.481-0.054,2.906-0.541,4.16c-0.324,1.824-0.864,3.591-0.918,5.543
   c1.297,1.482-0.432,4.502,2.215,4.973c1.581-0.114,2.662,0.969,3.958,1.368c1.041-0.342,1.689-1.667,3.04-1.14
   c0.756-0.527,1.513-1.382,1.459-2.408C110.484,356.333,109.998,351.93,109.282,348.91L109.282,348.91z" />

<path d="M39.967,326.796c-2.202,0.527-4.796,1.04-5.903,3.434c1.771,1.211,4.58,1.098,5.35,3.605
   c0.229,2.85-1.201,4.887-0.933,7.666c-1.324,1.111-2.864,1.866-3.863,3.263c-0.311-0.057-0.594-0.014-0.851,0.085v3.548
   c0.419-0.384,0.837-0.784,1.243-1.183c0.824-0.641,0.162-1.639-0.216-2.28c1.041-0.513,2.311-0.456,3.296-1.211
   c2.04,1.681,0,4.702,0.944,7.096c0.324,0.698,0.771,1.197,1.54,1.382c5.852-1.211,9.983,3.021,15.711,2.665l0.178-0.228
   c0.378,0.299,1.322,0.299,1.54,0c-0.162-1.112,0.16-2.494,0.554-3.591c-0.662-1.81-2.434-1.625-3.647-2.437
   c-3.31-1.282-6.174,1.453-9.754,0.812c-1-0.413-0.444-1.453-0.554-2.208c1.607-2.394,0.662-5.942,2.27-8.321
   c2.58-0.114,4.352,1.795,6.554,2.85l0.77-0.641c0.284-1.681-1.485-3.719,0-5.472c-0.485-0.926-1.094-2.037-2.146-2.607
   c-2.148-0.299-4.688-2.735-6.675-0.413l-1.932-1.981c0.5-2.679,0.446-5.699,1.554-8.079c1.218,1.282,1.596-0.641,2.648-1.054
   c1.256-1.269-0.054-2.964,0.378-4.646l-2.432-1.14c-2.056-0.584-1.475-0.784-5.393,0.142c-2.161,0.513-4.483,0.399-6.43,1.311
   v1.881c2.445-0.157,4.742-0.912,7.201-0.57l0.378,0.414C41.453,321.495,42.115,325.043,39.967,326.796L39.967,326.796
   L39.967,326.796z M33.766,340.147v-5.116c0.554,0.229,1,0.698,1.243,1.24C36.265,338.052,34.806,339.05,33.766,340.147z
    M33.766,344.849c-0.729,0.285-1.283,1.055-2.013,1.311c-1.702,1.226-3.417,2.451-5.352,3.021c-0.932-2.437,0-5.229,0.394-7.68
   c0.322-0.87,1.377-0.627,1.862-0.399c1.499,0.698,2.877,0.47,4.417,0c0.148-0.342,0.405-0.655,0.689-0.955v-5.115
   c-0.216-0.1-0.446-0.157-0.689-0.157c-0.822,0.114-1.77,0.527-2.483,0.413c0.605-2.679,1.877-5.187,1.931-8.093
   c0.716-1.795,1.108-3.42,0.392-5.286c0.434-1.226-0.822-1.625-0.392-2.85c0.419,0.014,0.838,0,1.243-0.014v-1.881
   c-0.297,0.143-0.581,0.299-0.853,0.499c-1.216,0.698-2.81-0.114-3.862-0.983c-1.271-1.282-3.026-0.243-4.417,0.171
   c0.229,1.51,1.984,2.266,3.094,3.021c1.378,3.078,1.378,7.324,0.554,10.757c-0.444,2.266,0.056,4.603,0.608,6.64
   c-0.5,0.869-1.324,1.738-2.324,1.625c-0.932-0.527-0.27-1.867-0.77-2.622c-1.162-0.755-2.312-2.038-3.796-1.226
   c-0.122,0.77,0.054,1.866,0.539,2.622c0.056,4.66,0.945,9.419-0.77,13.551c-0.135,0.399-0.216,0.77-0.23,1.154v0.484
   c0.081,1.639,1.108,3.078,1.945,4.232c1.041,0.171,1.434-1.111,2.312-1.225c2.391-2.822,5.269-4.973,7.971-7.467V344.849
   L33.766,344.849z" />

<path d="M39.589,322.948c-0.056-0.57-0.662-0.755-1.108-0.813c-1.377,0.47-3.31,0.527-3.688,2.208
   c0.485,0.471,1.146,0.584,1.756,0.813c1,0.527,2.146,0,2.862-0.813C39.251,323.775,39.642,323.419,39.589,322.948L39.589,322.948z" />

<path d="M52.206,300.25c-1.378-0.47-2.553,0.642-3.646,1.325c0.203,1.838-1.094,2.821-2.256,3.89
   c-1.297-0.256-2.553-0.684-3.688-1.368c-2.862-1.71-4.201-4.902-5.78-7.595c-1.419-0.684-1.783,1.154-2.783,1.795
   c-0.203,1.781,0.243,3.662,0.688,5.372c-0.203,1.368,1.446,2.465,0.271,3.705c-2.661,0.085-4.892,1.71-7.754,0.898l-0.405-0.47
   c0.486-1.752,1.418-3.32,2.391-4.902c0.637-1.752,2.823-3.462,1.405-5.628c-0.729-2.864-3.391-0.598-5.093-1.497
   c-0.243,1.795-1.175,3.292-1.418,5.073c-1.853,1.625-2.054,4.018-3.229,5.928c-0.852,1.111-2.146,2.266-1.703,3.719
   c-0.646,2.209,1.259,3.748,2.434,5.201c0.729,0.428,1.646,0.898,2.378,0.171c0.485-0.171,0.688-0.897,1.256-0.897
   c1.337-1.667,3.404-2.18,5.214-2.992c0.527-0.328,1.378,0.128,1.864-0.413c3.634-0.342,6.876-1.752,10.713-1.667
   c0.771,1.411-1.054,2.38-1.581,3.577c0.973-0.427,1.945-1.411,2.837-2.379h0.284c0.973-1.197,2.297-1.625,3.391-2.693
   c2.475-1.453,6.595-2.65,6.755-6.397C54.138,301.148,53.124,300.635,52.206,300.25L52.206,300.25z" />

<path d="M179.179,366.92c-0.608,0.641-1.23,0.784-1.853,0.684v1.496c0.475,0.071,0.934,0.171,1.313,0.385
   c1.783-0.484,3.674-1.012,4.836-2.722c0.646-0.327,1.419-0.612,2.162-0.285c1.122,1.71,4.755,2.437,3.403,5.13
   c0.919,0.156,1.647,0.897,2.579,1.054c0.582,0,0.082-0.684,0.435-0.926l0,0c-0.475-0.827-0.243-1.354-0.581-2.251
   c-1.743-1.667-3.053-3.42-5.147-4.232c-2.24-0.2,0.122-1.639-0.106-2.693c0.918-0.727,0.459-2.081,0.959-3.021
   c-0.313-2.479-2.121-4.56-4.255-5.585c-0.567-0.57-1.934,0.085-2-1.183c0.378-0.813-0.271-2.052,0.581-2.708
   c1.459-1.71,3.7-1.924,5.133-3.462c0.811-1.468-0.959-1.026-1.312-1.966c-0.392-0.684-0.352-1.752-1-2.237
   c0.271,1.311,0.689,2.521,0.729,3.918c-0.729,0.77-1.973,0.684-2.283,1.952c-0.392,0-0.851,0.698-1.162,0
   c-0.106-0.527,0.203-0.897,0.313-1.339c-0.689-1.354,0.459-2.622,0.27-4.089c-0.311-0.77,0.813-1.625,0-2.394
   c0.581-0.813,0.041-1.682,0.581-2.408c0.813,0.042,0.729,1.012,1.122,1.51v-0.499c-1.203-1.382,0.147-4.389-1.702-4.93
   c-0.811,0.542-1.351,1.183-1.702,2.081c-0.581,3.875-0.065,8.079-0.419,12.225c0.122,1.895-1.351,2.878-2.742,3.591v1.553
   c0.148-0.171,0.284-0.342,0.418-0.513c1.324,0.085,0.475,1.881,1.324,2.579c0.418,0.328,0.771-0.042,1.108,0l0.162,0.157
   c0.5-0.328,1.162,0.484,1.702,0c2.119,0.527,2.74,2.607,3.281,4.531c-0.188,1.468-1.242,2.679-2.402,3.577
   c-1.648,0.256-2.771-0.898-4.161-1.339c-0.446-0.086-0.934-0.171-1.434-0.229v1.411c0.597,0.043,1.148,0.2,1.581,0.613
   c0.853-0.171,1.54,0.285,2.015,0.77C180.963,365.98,179.842,366.479,179.179,366.92L179.179,366.92z M177.328,367.604
   c-1.054-0.157-2.121-0.983-3.134-1.297c-0.662-0.398-0.459-1.382-0.27-1.952l0.581-0.57c0.862,0.1,1.903-0.114,2.821-0.042v-1.411
   c-1.729-0.214-3.659-0.114-4.836,0.955c-0.081,0.784-0.541,1.596,0,2.294c0.975,0.399,0.475,1.71,1.555,1.781
   c0.419,1.639,1.932,1.539,3.281,1.738L177.328,367.604L177.328,367.604z M177.328,352.016v1.553
   c-2.877,3.419-6.255,6.056-9.117,9.433c0,0.613-0.743,0.826-0.853,1.354c0.189,2.437-0.433,4.646,0,6.925
   c0,0.898-0.662,1.838,0,2.565c-0.392,1.838,0.878,3.875-0.581,5.258c-1.122-0.214-1.984-1.012-2.973-1.61v-1.667
   c0.688,0.314,1.405,0.584,2.122,0.884l0,0c1-1.226,0.5-3.306,0.418-4.816c0.203-0.813,0.203-1.425,0-2.238
   c0.162-1.225-0.189-2.038,0.162-3.177l-0.313-0.897c-0.757,0.812-1.605,1.639-2.392,2.508v-2.764
   c0.973-0.969,1.903-1.981,2.811-3.049c-0.188-2.936,0.434-5.743,0-8.606c-0.77-0.727-1.459,0.698-2.432,0.456
   c-0.148,0.114-0.271,0.256-0.379,0.384v-2.408c0.297-0.128,0.606-0.213,0.959-0.213c0.77-0.727,1.743-0.813,2.432-1.667
   c-0.311-4.403,0.475-8.72,1.013-12.952c0.541,0.2,1,0.926,1,1.667c-0.77,1.425-0.27,3.376-1,4.802c0.42,1.795-0.241,3.548,0,5.429
   c0.34,0.94,1.041,0.114,1.581,0.157c0.418-0.328,1.081-1.012,1.54-0.328c0.313,0.285,0.622,0.741,0.313,1.068
   c-1.081,1.297-2.813,1.468-3.594,2.835c-0.189,2.038-0.581,4.204-0.419,6.198c0.271,0.656-0.541,1.226,0.146,1.667
   c0.973,0.199,0.973-0.983,1.851-0.94c1.945-2.722,4.298-5.016,6.851-7.367C176.747,352.315,177.031,352.173,177.328,352.016z
    M163.805,352.101v2.408c-0.475,0.556-0.783,1.154-1.594,1.125c-2.352,1.753-5.565,3.662-8.416,1.795l-0.313-0.285
   c1.394-0.983,3.404-1.069,4.863-2.124c0.851-0.242,1.513-1.097,2.432-1.182C161.927,353.555,162.765,352.557,163.805,352.101
   L163.805,352.101z M163.805,365.324v2.764c-1.621,1.752-2.985,3.676-2.756,6.084c0.862,0.713,1.781,1.211,2.756,1.653v1.667
   c-0.108-0.057-0.216-0.128-0.313-0.186c-1.241-0.641-2.943-1.012-3.443-2.564c-1.081-0.371-0.853-1.582-1.271-2.408
   c0.271-2.066,1.729-3.377,2.852-4.973C162.387,366.692,163.103,366.023,163.805,365.324z" />

<path d="M211.601,367.163c-1.013-1.283-3.432-0.214-3.729-2.124c1.607-2.992,2.918-6.07,4.039-9.262
   c-0.203-1.71,1.702-0.855,2.107-2.237c2.324-0.527-0.203-2.323,0.203-3.719c-0.608-0.741-1.607-0.84-2.312-1.481
   c-0.606-0.528-0.514-1.283-0.919-1.81c-0.5-0.741-1.403-0.741-1.605-1.71c-0.405-0.313-0.813,0.214-1.216,0
   c-0.607,0.114-0.905,0.755-0.813,1.382c1.919,1.824-0.904,3.092-0.297,5.016c-1.107,1.995-3.836,1.154-5.242,3.063
   c-2.121-0.427-3.431,1.168-5.146,1.71c0.201,0.641,1,0.955,1.513,1.482c2.216,2.023,4.539-0.641,6.755-0.214
   c1.716,1.81-0.297,4.047-1.013,5.856c-1.405,0.328-1.405,2.023-2.715,2.237c-1.418,1.696-3.636,3.52-5.757,2.765
   c-0.403,0.541-0.811,1.168-0.605,2.023c0.5,0.955,0.5,2.551,2.026,2.237c1.105-0.955,2.619-1.068,4.133-1.382
   c0.811-1.496,2.419-1.283,3.524-2.451c1.015-2.337,3.337-1.695,5.147-1.596c2.431,1.282,6.052,2.764,8.481,0.855
   c-1.013-1.168-3.337-0.328-4.553-1.382C213.114,367.048,212.412,367.277,211.601,367.163L211.601,367.163z" />

<path d="M224.719,372.691c-0.297-0.841-1.812-1.696-0.702-2.65c-0.608-1.168-1.918-1.382-3.026-1.71
   c-0.811,0.641-2.321,0.328-2.729,1.282c0.203,0.1,0.311,0.313,0.513,0.214c1.312,1.269,3.229,1.482,4.026,3.406
   c0.918,0.1,2.024-0.542,2.729,0.427C225.624,373.118,224.922,373.118,224.719,372.691L224.719,372.691z" />

<path d="M242.604,349.993c0.606,1.083,1.824,1.325,2.729,1.938c0.067,0.484-0.565,0.684-0.646,1.126
   c-0.419,0.356-1.365,0.313-1.324,1.068c0.311,0.285,0.459,0.884,0.946,0.841c1.473-0.556,1.973-2.194,3.024-3.292
   c0.378,0.071,0.675-0.128,0.905-0.399c0.081-0.441-0.378-0.556-0.527-0.841c0.297-1.752-0.646-2.949-1.594-4.146
   c0.23-1.795,1.297-3.861,0.162-5.543c-0.648-0.797-1.405-1.952-2.499-1.795v0.399c0.567,0.441,0.338,1.24,0.527,1.795
   c-0.229,1.553-0.108,2.792-0.148,4.431c0.797,1.511,2.607,2.864,1.702,4.702c-1.175-0.042-2.229-0.399-3.134-1.083
   C242.686,349.48,242.226,349.722,242.604,349.993L242.604,349.993z" />

<path d="M245.103,374.216c-0.337-0.042-0.648-0.157-0.934-0.313v4.873c0.056,0.043,0.097,0.1,0.137,0.143
   c1.932,0.712,3.065-1.283,4.728-1.682c1.054-1.91,0.148-3.776,0.257-5.927l0.23-0.285c0.904-0.442,1.851,0.199,2.646,0l0.108,0.114
   c0.646-0.114,1.405-0.2,1.702-0.826c-0.148-0.955,0.903-1.753,0.147-2.636c-0.257-1.069-1.581-0.755-2.484-0.798
   c-0.878,1.111-2.353,0.556-3.404,1.083c-0.378-0.285-0.608-0.684-0.675-1.083c1.054-1.667,2.674-2.95,4.08-4.588l0.257-0.955
   c-0.379-1.98-2.716-1.311-4.188-1.667c0.04-0.442,0.486-0.285,0.637-0.684l0,0c1.932-0.912,3.674-2.266,5.78-2.779
   c1.702-0.926,3.823-0.84,5.363-2.194c0.081-0.485-0.216-0.926-0.635-1.126c-1.959-0.912-3.661,0.485-5.363,0.998l-0.27-0.271
   c0-2.223,0.862-4.061,1.281-6.084c0.459-2.394,2.271-4.545,1.596-7.053c-1.067-1.681-2.648-0.997-4.201-0.955
   c-1.203,0.556-2.756,0.955-3.392,2.351c0.742-0.484,1.433-1.083,2.229-1.396c0.486-0.128,1.5-0.441,1.688,0.271l-0.524,5.272
   l0.121,0.114c-0.608,1.511-0.313,3.42-1.175,4.859l-0.108-0.156c-0.878,0.042-1.365-1.154-2.121-0.955
   c0.756,0.755,0.905,2.379,2.377,1.909c-0.041,0.784-0.229,1.539-0.527,2.223c-1.282-1.482-0.444,0.912-1.432,1.111
   c-1.324,0.157-2.54,0.641-3.823,0.955c-0.337,0.057-0.688,0.143-1.04,0.242v1.567c1.189-0.669,2.299-1.539,3.647-1.81
   c0.946-0.199,2.31-1.467,3.026,0.128c-1.918,1.625-4.217,2.779-6.676,3.292v4.303c0.353-0.014,0.678,0.029,0.934,0.285
   l-0.934,2.309v1.211c0.122,0.584,0.23,1.154,0,1.696v3.006c0.243-0.042,0.475-0.086,0.662-0.171
   C245.522,372.42,245.185,373.574,245.103,374.216L245.103,374.216z M244.17,373.902c-0.378-0.214-0.729-0.513-1.065-0.812
   c0.025-0.542,0.554-0.669,1.065-0.784V369.3c0,0.014-0.013,0.042-0.013,0.057c-0.905,0.755-1.932,1.311-3.026,1.667
   c-0.565,0.598-1.729,0.441-1.958,1.354c1.661-0.399,2.566,1.639,3.433,2.636c0,0.513,1.065,1.069,0.122,1.553
   c0.094,0.884,0.862,1.596,1.443,2.208L244.17,373.902L244.17,373.902z M244.17,356.319v1.567c-0.729,0.413-1.484,0.741-2.35,0.826
   c-1.324,0.114-2.688,1.026-3.931,0.114c-1.515,0.2-2.799-0.242-4.08-0.669c0.635-0.243,1.581-0.043,1.958-0.684
   c-2.08-2.194-1.434-5.686-1.555-8.549c0.162-0.442,0.162-1.041,0.499-1.282c1.662,2.878,3.434,5.884,2.905,9.546
   c0.527,0.442,1.473,0.328,2.081,0.128c0.905-0.798-0.459-1.71-0.648-2.636c0.229-3.448,0.229-7.238-0.525-10.458
   c0.27-0.328,0.605,0.028,0.905,0c2.188,1.582,1.513,4.659,1.851,7.167c0.148,1.739,0.148,3.577,0.541,5.244
   C242.604,356.804,243.388,356.547,244.17,356.319L244.17,356.319z M244.17,359.496c-0.297,0.072-0.606,0.129-0.918,0.171
   c-0.484,0.47-1.432,0.998-1.322,1.795c0.066,0.955,0.27,1.909,1.176,2.351c0.337,0.057,0.715,0,1.065-0.015L244.17,359.496
   L244.17,359.496z M244.17,366.393v1.211c-0.054-0.285-0.106-0.584-0.121-0.884L244.17,366.393z" />

<path d="M249.143,348.354L249.143,348.354l0.797-0.271c0.757-0.157,1.054-0.997,0.905-1.795c-0.567-0.997-1.515-0.954-2.339-1.111
   C248.157,346.288,249.859,347.043,249.143,348.354z" />

<path d="M225.691,357.688l-1.432,2.907c0.484,1.396,0.257,3.12,1.432,4.146c0.419,0.598,0.271,1.752,1.067,1.952
   c0.256-0.798,1.013-1.396,1.432-2.066c0.865-2.309-1.702-3.477-2.121-5.386C225.772,358.813,226.219,357.929,225.691,357.688
   L225.691,357.688z" />

<path d="M152.256,359.525c0.297-0.413,0.094-1.026-0.097-1.439c-1.175-1.952-2.836,0.826-4.012-0.414
   c-0.095-1.966,0.392-4.132,0-5.97c0.202-1.853,0.202-3.505,0.486-5.471c-0.394-0.813-1.459,0.114-1.853-0.813
   c-1.081-0.413-1.958,0.2-2.837,0.712c-1.473,1.24,0.394,2.679-0.203,4.232c1.081,1.952,0.689,4.631,1.662,6.697
   c1.567,3.191-2.337,1.952-3.229,3.705c-0.677,0.114-1.365,1.239-1.945,0.313c-0.203-0.513,0.284-0.827,0.486-1.24
   c0.392-1.126-0.878-1.752-1.177-2.679c-0.782-1.553,0.975-1.853,1.758-2.793c0.392-0.1,1.081,0,0.782-0.826
   c-0.675-1.026-1.66-2.251-2.932-1.938c-0.878,0.599-0.581,1.938-0.783,2.978c-0.485,0.413-0.188,1.125-0.784,1.439
   c-0.282,0.826,0.096,1.339,0.784,1.652c0.203,0.314,0,0.727-0.297,0.926c0.108,1.752-1.27,2.793-1.459,4.332
   c-0.392,0.627-0.986,0.926-1.565,1.14c-1.662-1.339-4.312,0.2-5.771-1.853c0.486-1.453,0-3.405,0.878-4.745
   c1.175-1.653,3.026-0.214,4.404-1.24c0-0.414,0.188-0.926-0.203-1.24c-1.271,0-2.243,0.2-3.418,0.313
   c-1.271-0.527-1.364-2.28-1.756-3.505c0.392-0.813,1.363-0.813,1.943-1.439c0.299,0,0.597,0.727,0.894,0.1
   c0.188-0.413,0-0.926-0.297-1.24c-1.864,0-2.353-2.266-4.107-2.365c-2.053,1.339-3.524,3.405-5.58,4.645
   c-0.392,0.499,0.097,1.012,0.487,1.325c0.688,0.613,1.661,0.513,2.35-0.313c0.597-0.2,1.271-0.1,1.759,0.413
   c-0.189,1.026,0.297,2.166-0.394,2.992c-2.146,0.1-3.81,1.24-5.958,1.24c-1.756,0.199-0.581,2.166-1.081,3.191
   c0.203,0,0.5,0.114,0.689-0.1c1.364-0.413,2.837-0.612,4.105-1.239c0.394-0.2,0.975-0.3,1.271,0.1
   c0.095,1.354-0.394,2.479-1.271,3.52c-0.095,1.339-2.053,0.812-1.662,2.465c-1.27,0.727-1.27,2.166-2.053,3.206
   c-0.878,1.539-2.146,2.679-2.837,4.332c0.297,0.299,0.689,0.612,1.081,0.712c2.634-1.126,4.499-4.431,5.564-7.21
   c1.379-1.24,1.474-3.092,2.54-4.445c0.107-0.2,0.393-0.1,0.595,0.114c-1.271,2.878,0.878,5.557-0.203,8.45
   c-0.581,1.453-1.853,2.679-3.215,3.206c-1.378,1.125-2.353-1.653-3.229,0c1.458,0.712,2.634,2.166,4.392,2.166
   c1.565-0.114,3.134-0.313,4.105-1.752c0.5-1.354,0.394-2.579,0.595-4.132c0.581-1.34-0.297-2.893,0.299-4.232
   c1.459-0.1,2.634,1.239,4.105,1.239c0.784-0.199,0.784-1.026,1.175-1.439c0.678,0.299,0.678,1.439,1.556,1.125
   c1.378-0.299,2.256-1.239,3.431-1.952c0.878,0.1,2.147-0.727,2.837,0.613c0,0.727,1.067,0.513,0.878,1.339
   c2.148,2.379,1.176,5.685,1.757,8.777c0.202,0.712,0.974,1.339,1.661,0.826c1.175-0.413,0.878-1.752,1.175-2.693
   c-0.878-2.878-1.362-6.383-0.782-9.375C147.851,361.278,150.688,360.764,152.256,359.525L152.256,359.525z" />

</g>
<g>
<path class="mountain" fill="#ccc" stroke="#008D43" d="M125.488,268.832c-1.919-1.467-2.856-6.098-4.227-15.018l11.236-17.754l6.549,18.068
   C139.047,254.128,130.979,272.993,125.488,268.832L125.488,268.832z" />

<path class="mountain" fill="#ccc" stroke="#008D43" d="M118.256,257.419c0,0,2.9,32.402,21.638,4.104c6.146-9.29,11.013-6.825,14.184-4.759
   c3.066,2.009,18.634,12.781,18.692,12.81v0.015l-9.524,12.111c0,0-18.989-17.412-24.734-7.637c0,0-25.002,36.791-28.989-2.493
   C109.506,271.313,118.256,257.419,118.256,257.419L118.256,257.419z" />

<path class="mountain" fill="#ccc" stroke="#008D43" d="M106.26,275.7c0,0,5.045,30.963,24.525,12.226l9.301-9.803c0,0,2.41-3.976,7.858-1.624
   c2.292,0.998,11.741,4.987,22.055,17.882c0.255,0-10.269,13.907-10.269,13.907s-14.271-25.876-26.832-12.981
   c-12.516,16.244-31.268,20.789-34.884-7.01L106.26,275.7L106.26,275.7z" />

</g>
</svg>
